<?xml version="1.0" encoding="UTF-8"?>
<!--
  Pi mark — FONT-LOCKED. Same technique as wordmark.
-->
<svg xmlns="http://www.w3.org/2000/svg" viewBox="0 0 160 160"
     role="img" aria-label="π — Pointegrity">
  <g fill="#1e2f14">
  <g transform="translate(28.00 120.00) scale(0.12800 -0.12800)"><path d="M69 -200V525H217V437H222Q233 481 272.5 509.0Q312 537 363 537Q430 537 474.5 505.5Q519 474 542.0 413.0Q565 352 565 263Q565 174 542.0 112.5Q519 51 474.5 19.5Q430 -12 363 -12Q312 -12 272.5 16.5Q233 45 222 88H217V-200ZM314 108Q356 108 383.5 138.0Q411 168 411 217V308Q411 358 383.5 387.5Q356 417 314 417Q286 417 264.0 408.0Q242 399 229.5 381.5Q217 364 217 340V185Q217 161 229.5 143.5Q242 126 264.0 117.0Q286 108 314 108Z"/></g>
  <g transform="translate(105.82 120.00) scale(0.12800 -0.12800)"><path d="M217 0H69V525H217Z"/></g>
  </g>
  <circle cx="124.13" cy="33" r="13" fill="#dc2626"/>
</svg>
