<?xml version="1.0" encoding="UTF-8"?>
<!--
  Pointegrity wordmark — FONT-LOCKED.
  All glyphs are <path> elements extracted from IBM Plex Sans 700 via
  fontTools. No font-family reference; identical rendering on every
  system, in <img> contexts, in LS checkouts, in email, etc.
  Regenerate: python3 _extract.py (same directory).
-->
<svg xmlns="http://www.w3.org/2000/svg" viewBox="0 0 560 140"
     role="img" aria-label="Pointegrity">
  <g fill="#1e2f14">
  <g transform="translate(20.00 100.00) scale(0.08800 -0.08800)"><path d="M229 0H77V698H407Q472 698 519.5 670.0Q567 642 593.0 591.5Q619 541 619 475Q619 409 593.0 359.0Q567 309 519.5 280.5Q472 252 407 252H229ZM229 566V384H389Q412 384 428.0 392.0Q444 400 453.0 415.5Q462 431 462 453V497Q462 520 453.0 535.0Q444 550 428.0 558.0Q412 566 389 566Z"/></g>
  <g transform="translate(77.73 100.00) scale(0.08800 -0.08800)"><path d="M282 -12Q205 -12 150.0 21.5Q95 55 65.5 117.0Q36 179 36 263Q36 348 65.5 409.0Q95 470 150.0 503.5Q205 537 282 537Q359 537 414.0 503.5Q469 470 498.5 409.0Q528 348 528 263Q528 179 498.5 117.0Q469 55 414.0 21.5Q359 -12 282 -12ZM282 105Q326 105 350.0 132.5Q374 160 374 209V316Q374 366 350.0 393.0Q326 420 282 420Q239 420 214.5 393.0Q190 366 190 316V209Q190 160 214.5 132.5Q239 105 282 105Z"/></g>
  <g transform="translate(127.36 100.00) scale(0.08800 -0.08800)"><path d="M217 0H69V525H217Z"/></g>
  <g transform="translate(152.53 100.00) scale(0.08800 -0.08800)"><path d="M217 0H69V525H217V436H223Q237 477 272.0 507.0Q307 537 369 537Q449 537 491.0 482.5Q533 428 533 329V0H385V317Q385 367 369.0 392.0Q353 417 312 417Q288 417 266.5 408.5Q245 400 231.0 383.0Q217 366 217 340Z"/></g>
  <g transform="translate(204.98 100.00) scale(0.08800 -0.08800)"><path d="M341 0H253Q177 0 137.0 39.0Q97 78 97 153V410H23V525H60Q90 525 101.0 539.5Q112 554 112 581V667H245V525H349V410H245V115H341Z"/></g>
  <g transform="translate(238.68 100.00) scale(0.08800 -0.08800)"><path d="M288 -12Q208 -12 151.5 21.5Q95 55 65.5 117.0Q36 179 36 263Q36 346 64.5 407.5Q93 469 148.0 503.0Q203 537 282 537Q369 537 422.5 499.5Q476 462 501.0 401.0Q526 340 526 269V225H189V217Q189 165 217.5 134.5Q246 104 305 104Q352 104 380.5 123.0Q409 142 434 167L508 75Q473 35 416.5 11.5Q360 -12 288 -12ZM285 428Q255 428 233.5 414.5Q212 401 200.5 377.0Q189 353 189 320V312H373V321Q373 353 363.5 377.0Q354 401 334.5 414.5Q315 428 285 428Z"/></g>
  <g transform="translate(288.14 100.00) scale(0.08800 -0.08800)"><path d="M555 -38Q555 -93 528.5 -132.0Q502 -171 440.0 -191.5Q378 -212 271 -212Q180 -212 125.5 -197.5Q71 -183 46.5 -155.5Q22 -128 22 -90Q22 -46 48.0 -21.0Q74 4 120 10V21Q83 28 63.5 53.5Q44 79 44 113Q44 154 74.5 176.5Q105 199 142 206V210Q95 232 71.5 270.5Q48 309 48 360Q48 413 73.0 453.0Q98 493 148.0 515.0Q198 537 273 537Q298 537 320.5 534.5Q343 532 362 527V547Q362 588 383.0 607.0Q404 626 441 626H524V516H408V510Q454 488 476.0 449.0Q498 410 498 360Q498 308 473.5 268.5Q449 229 399.0 207.5Q349 186 273 186Q247 186 223.5 189.0Q200 192 180 197Q170 190 163.5 179.5Q157 169 157 155Q157 136 171.5 125.5Q186 115 220 115H372Q468 115 511.5 75.0Q555 35 555 -38ZM416 -58Q416 -35 397.5 -23.0Q379 -11 335 -11H155Q145 -21 140.5 -33.5Q136 -46 136 -58Q136 -86 161.0 -100.0Q186 -114 246 -114H306Q366 -114 391.0 -100.0Q416 -86 416 -58ZM273 283Q317 283 338.5 302.0Q360 321 360 355V367Q360 402 338.5 420.5Q317 439 273 439Q230 439 208.0 420.5Q186 402 186 367V355Q186 321 208.0 302.0Q230 283 273 283Z"/></g>
  <g transform="translate(336.71 100.00) scale(0.08800 -0.08800)"><path d="M217 0H69V525H217V411H222Q228 440 244.0 466.0Q260 492 287.5 508.5Q315 525 356 525H382V387H345Q302 387 273.5 379.5Q245 372 231.0 355.0Q217 338 217 307Z"/></g>
  <g transform="translate(372.26 100.00) scale(0.08800 -0.08800)"><path d="M143 581Q98 581 77.5 602.0Q57 623 57 654V676Q57 708 77.5 728.5Q98 749 143 749Q188 749 208.5 728.5Q229 708 229 676V654Q229 623 208.5 602.0Q188 581 143 581ZM69 0V525H217V0Z"/></g>
  <g transform="translate(397.43 100.00) scale(0.08800 -0.08800)"><path d="M341 0H253Q177 0 137.0 39.0Q97 78 97 153V410H23V525H60Q90 525 101.0 539.5Q112 554 112 581V667H245V525H349V410H245V115H341Z"/></g>
  <g transform="translate(431.14 100.00) scale(0.08800 -0.08800)"><path d="M313 280 390 525H528L326 -81Q313 -121 292.5 -147.5Q272 -174 241.0 -187.0Q210 -200 165 -200H73V-85H172L190 -27L6 525H153L230 280L268 128H274Z"/></g>
  </g>
  <circle cx="139.94" cy="40" r="8" fill="#dc2626"/>
</svg>
